<mxfile host="app.diagrams.net" modified="2024-05-21T10:24:48.876Z" agent="Mozilla/5.0 (Windows NT 10.0; Win64; x64; rv:126.0) Gecko/20100101 Firefox/126.0" etag="__F-XUD1JNzrTyq-GF9r" version="24.4.4" type="device">
  <diagram name="Pagina-1" id="nqvDypc4Ah4G6WBrqWez">
    <mxGraphModel dx="1039" dy="533" grid="1" gridSize="10" guides="1" tooltips="1" connect="1" arrows="1" fold="1" page="1" pageScale="1" pageWidth="827" pageHeight="1169" math="0" shadow="0">
      <root>
        <mxCell id="0" />
        <mxCell id="1" parent="0" />
        <mxCell id="x91iqUg3FYDleNqlYm3p-4" style="edgeStyle=orthogonalEdgeStyle;rounded=0;orthogonalLoop=1;jettySize=auto;html=1;entryX=0;entryY=0.5;entryDx=0;entryDy=0;endArrow=none;endFill=0;" edge="1" parent="1" source="x91iqUg3FYDleNqlYm3p-1" target="x91iqUg3FYDleNqlYm3p-2">
          <mxGeometry relative="1" as="geometry" />
        </mxCell>
        <mxCell id="x91iqUg3FYDleNqlYm3p-1" value="" style="rhombus;whiteSpace=wrap;html=1;" vertex="1" parent="1">
          <mxGeometry x="80" y="240" width="80" height="80" as="geometry" />
        </mxCell>
        <mxCell id="x91iqUg3FYDleNqlYm3p-5" style="edgeStyle=orthogonalEdgeStyle;rounded=0;orthogonalLoop=1;jettySize=auto;html=1;endArrow=none;endFill=0;" edge="1" parent="1" source="x91iqUg3FYDleNqlYm3p-2" target="x91iqUg3FYDleNqlYm3p-3">
          <mxGeometry relative="1" as="geometry" />
        </mxCell>
        <mxCell id="x91iqUg3FYDleNqlYm3p-2" value="" style="rounded=0;whiteSpace=wrap;html=1;" vertex="1" parent="1">
          <mxGeometry x="280" y="250" width="120" height="60" as="geometry" />
        </mxCell>
        <mxCell id="x91iqUg3FYDleNqlYm3p-3" value="" style="rhombus;whiteSpace=wrap;html=1;" vertex="1" parent="1">
          <mxGeometry x="520" y="240" width="80" height="80" as="geometry" />
        </mxCell>
        <mxCell id="x91iqUg3FYDleNqlYm3p-6" value="" style="endArrow=oval;html=1;rounded=0;strokeColor=#3333FF;strokeWidth=2;endFill=1;startArrow=oval;startFill=1;" edge="1" parent="1">
          <mxGeometry width="50" height="50" relative="1" as="geometry">
            <mxPoint x="250" y="310" as="sourcePoint" />
            <mxPoint x="430" y="310" as="targetPoint" />
            <Array as="points">
              <mxPoint x="250" y="220" />
              <mxPoint x="430" y="220" />
            </Array>
          </mxGeometry>
        </mxCell>
        <mxCell id="x91iqUg3FYDleNqlYm3p-8" style="edgeStyle=orthogonalEdgeStyle;rounded=0;orthogonalLoop=1;jettySize=auto;html=1;entryX=0.5;entryY=1;entryDx=0;entryDy=0;endArrow=none;endFill=0;" edge="1" parent="1" source="x91iqUg3FYDleNqlYm3p-7" target="x91iqUg3FYDleNqlYm3p-2">
          <mxGeometry relative="1" as="geometry" />
        </mxCell>
        <mxCell id="x91iqUg3FYDleNqlYm3p-7" value="" style="ellipse;whiteSpace=wrap;html=1;aspect=fixed;" vertex="1" parent="1">
          <mxGeometry x="335" y="350" width="10" height="10" as="geometry" />
        </mxCell>
        <mxCell id="x91iqUg3FYDleNqlYm3p-9" value="? Extra" style="text;html=1;align=center;verticalAlign=middle;whiteSpace=wrap;rounded=0;" vertex="1" parent="1">
          <mxGeometry x="310" y="360" width="60" height="30" as="geometry" />
        </mxCell>
      </root>
    </mxGraphModel>
  </diagram>
</mxfile>
